<?xml version="1.0" standalone="no"?>
<!DOCTYPE svg PUBLIC "-//W3C//DTD SVG 20010904//EN"
 "http://www.w3.org/TR/2001/REC-SVG-20010904/DTD/svg10.dtd">
<svg version="1.0" xmlns="http://www.w3.org/2000/svg"
 width="422.000000pt" height="241.000000pt" viewBox="0 0 422.000000 241.000000"
 preserveAspectRatio="xMidYMid meet">

<g transform="translate(0.000000,241.000000) scale(0.100000,-0.100000)"
fill="#000000" stroke="none">
<path d="M600 1483 c-99 -16 -180 -71 -209 -140 -7 -18 -20 -33 -29 -33 -13 0
-13 -2 3 -13 10 -8 14 -17 8 -20 -5 -4 -7 -27 -3 -56 5 -40 3 -51 -9 -56 -14
-6 -14 -8 2 -16 9 -6 26 -7 37 -4 15 5 18 3 14 -9 -4 -10 -19 -16 -43 -16 -30
-1 -33 -2 -18 -11 11 -6 32 -9 48 -7 38 6 38 -11 -1 -18 -16 -4 -27 -10 -24
-15 3 -5 -14 -9 -38 -9 -30 0 -39 -3 -28 -9 8 -6 18 -7 23 -4 11 7 57 -36 57
-54 0 -7 9 -13 20 -13 11 0 27 -11 36 -25 9 -14 26 -25 38 -25 17 0 18 -2 6
-10 -13 -9 -13 -11 0 -20 13 -8 13 -10 0 -10 -12 0 -12 -2 2 -16 27 -28 151
-38 243 -20 174 33 233 53 229 79 -3 22 16 34 26 16 5 -7 21 -13 37 -14 25 0
28 -3 25 -32 -5 -51 10 -54 270 -51 l232 3 7 32 c7 36 -5 53 -37 53 -13 0 -26
5 -29 10 -3 6 -27 11 -53 12 -26 1 0 4 58 8 97 6 136 1 112 -14 -7 -4 -6 -17
1 -36 10 -25 9 -33 -3 -40 -26 -16 -3 -23 92 -28 115 -6 174 13 162 50 -11 36
-14 67 -15 156 0 71 -3 85 -22 102 l-21 20 38 0 c33 0 37 2 26 15 -7 8 -9 15
-4 15 5 1 -2 7 -15 14 l-24 14 21 6 c12 4 20 11 17 15 -2 5 32 12 78 15 45 4
89 9 98 12 21 6 32 -22 19 -47 -9 -16 -7 -19 12 -20 21 -1 21 -1 -4 -11 -30
-10 -38 -28 -13 -28 14 0 14 -4 1 -35 -13 -30 -13 -35 -1 -35 9 0 14 -8 12
-22 -1 -15 5 -24 23 -29 16 -4 19 -7 8 -8 -21 -1 -24 -17 -6 -24 8 -4 5 -8 -9
-12 -20 -7 -20 -8 -5 -36 15 -26 15 -31 2 -39 -22 -14 -22 -68 0 -80 11 -6 61
-10 113 -10 100 0 126 11 113 46 -4 11 1 24 14 36 20 19 20 19 0 40 -20 22
-18 38 5 38 9 0 12 6 9 15 -4 8 -1 15 6 15 6 0 8 5 5 10 -3 6 -15 10 -26 10
-11 0 -19 6 -18 13 1 6 -1 20 -5 29 -4 9 -2 26 4 38 10 18 8 24 -7 35 -17 12
-16 14 11 21 24 6 26 9 15 18 -8 6 -15 23 -15 38 -2 25 0 26 60 30 33 2 70 0
80 -5 10 -5 44 -7 76 -5 37 3 60 0 68 -9 7 -7 20 -9 29 -6 11 4 14 3 9 -5 -4
-7 -27 -12 -52 -12 -24 0 -44 -4 -44 -10 0 -5 -7 -10 -15 -10 -14 0 -19 -12
-16 -32 0 -5 -25 -9 -56 -9 -32 -1 -46 -4 -30 -6 15 -2 27 -9 27 -14 0 -5 6
-9 14 -9 8 0 16 -5 18 -12 2 -6 21 -13 42 -14 61 -5 55 -14 -10 -14 -46 -1
-55 -3 -41 -11 10 -6 28 -10 40 -9 35 3 43 0 27 -10 -8 -5 -27 -10 -42 -10
-16 0 -28 -4 -28 -10 0 -9 14 -14 33 -11 4 1 18 -5 30 -14 18 -12 19 -15 4
-15 -10 0 -17 -8 -17 -20 0 -11 5 -20 11 -20 13 0 39 -25 39 -38 0 -16 27 -22
95 -22 46 0 64 -4 68 -15 5 -12 -9 -15 -76 -17 -91 -3 -83 -7 66 -34 97 -17
181 -14 201 6 6 6 33 11 60 11 l51 2 -40 7 c-31 5 -18 7 60 11 55 3 109 9 119
13 13 7 17 6 12 -2 -3 -6 3 -12 16 -15 19 -3 18 -5 -7 -6 l-30 -3 30 -13 c35
-16 201 -20 210 -5 3 6 18 10 33 10 l27 1 -30 16 -30 17 25 7 c39 11 102 10
95 -1 -3 -5 -1 -10 5 -10 6 0 9 -4 6 -9 -3 -5 26 -16 65 -25 80 -18 234 -22
224 -6 -3 6 -14 10 -25 10 -15 0 -30 18 -30 36 0 2 15 4 33 5 17 0 27 3 20 5
-7 3 -10 11 -7 19 3 7 -5 23 -18 35 -22 21 -22 22 -4 35 16 12 14 14 -30 18
-34 2 -23 4 33 5 78 2 111 13 77 26 -9 3 -30 7 -47 7 -24 1 -26 3 -9 6 12 2
22 8 22 12 0 13 -24 31 -42 31 -10 0 -18 5 -18 12 0 7 -12 25 -27 40 l-27 28
23 0 c16 0 21 4 17 15 -4 10 1 15 16 15 21 0 21 0 -2 25 -13 14 -32 25 -42 25
-10 0 -18 5 -18 10 0 6 15 10 33 10 21 0 40 9 55 25 l23 24 -23 5 c-13 3 -32
7 -43 9 -12 3 -6 5 13 6 48 2 30 21 -21 23 l-42 1 45 6 c41 5 43 7 25 18 -19
12 -19 12 -1 13 14 0 16 3 7 13 -16 20 -4 27 48 29 30 1 17 4 -39 9 -209 18
-615 3 -631 -23 -5 -8 -1 -17 14 -24 20 -11 18 -13 -26 -19 -26 -4 -47 -11
-47 -15 0 -4 18 -13 40 -20 43 -14 48 -26 24 -56 -11 -13 -17 -15 -20 -6 -3 6
-14 12 -25 12 -10 0 -19 5 -19 12 0 15 -50 68 -65 68 -6 0 -17 9 -25 21 -20
28 -43 39 -114 56 -75 18 -183 10 -243 -18 -24 -10 -52 -19 -63 -19 -11 0 -20
-4 -20 -10 0 -5 -7 -10 -16 -10 -9 0 -14 -6 -11 -12 2 -7 -2 -28 -9 -46 -13
-31 -12 -33 12 -42 14 -6 32 -10 40 -10 8 0 12 -4 9 -10 -7 -12 -138 -12 -175
0 -18 6 -8 8 40 9 l65 1 -28 28 c-19 18 -45 31 -85 38 l-57 11 90 2 c62 1 85
4 75 11 -8 5 -29 10 -47 10 -25 0 -31 4 -27 15 4 8 15 15 25 15 10 0 19 4 19
9 0 24 -75 31 -326 31 -230 0 -263 -2 -258 -15 4 -10 0 -15 -11 -15 -15 0 -45
-22 -45 -34 0 -2 8 -7 18 -10 10 -3 6 -4 -8 -3 -21 2 -25 7 -22 28 4 43 -16
50 -129 47 l-104 -3 -3 -37 c-2 -22 1 -38 7 -38 6 0 11 -6 11 -14 0 -8 10 -17
23 -19 l22 -4 -22 -2 c-13 0 -23 -8 -23 -16 0 -9 -9 -15 -25 -15 -14 0 -25 -4
-25 -10 0 -10 14 -14 38 -11 7 1 19 -5 28 -14 14 -13 14 -15 -1 -15 -9 0 -13
-4 -10 -10 3 -5 -6 -12 -20 -16 -30 -7 -34 -24 -5 -24 13 0 17 -5 14 -14 -3
-8 2 -16 13 -19 10 -3 1 -5 -19 -6 -43 -1 -46 -7 -18 -31 13 -11 18 -26 15
-46 -2 -16 -4 -46 -4 -66 l-1 -38 -72 2 c-40 0 -58 3 -40 5 63 8 20 23 -66 23
-90 1 -119 11 -119 43 0 11 8 17 23 17 31 0 55 10 48 21 -3 5 22 9 56 9 45 0
61 3 58 13 -3 7 -37 15 -94 20 -91 9 -155 27 -122 34 10 3 15 10 11 19 -4 11
5 14 43 14 44 0 46 1 28 15 -10 8 -32 15 -49 15 -16 0 -25 4 -20 8 12 8 13 82
1 100 -4 7 -22 13 -39 13 -18 1 -24 3 -14 6 24 6 21 34 -5 41 -17 5 -8 9 32
12 40 4 50 8 35 14 -11 4 -28 12 -37 17 -20 10 -162 10 -258 -1 l-65 -7 55 -3
c35 -2 44 -4 25 -7 -50 -6 -62 -13 -46 -23 8 -4 20 -6 28 -3 7 3 13 -2 13 -11
0 -10 -9 -16 -22 -16 -23 -1 -23 -1 -3 -16 11 -8 30 -12 43 -9 12 3 22 2 23
-2 6 -46 3 -93 -5 -93 -6 0 -2 -7 8 -15 11 -8 28 -13 38 -9 10 3 18 1 18 -5 0
-5 8 -12 18 -14 9 -3 -4 -5 -30 -6 -27 0 -48 -5 -48 -11 0 -5 -7 -10 -15 -10
-8 0 -15 -4 -15 -10 0 -5 5 -10 11 -10 6 0 17 -7 26 -16 10 -9 34 -15 67 -15
95 0 126 -2 126 -10 0 -4 8 -9 17 -11 9 -2 -44 -1 -118 0 -74 2 -140 9 -146
14 -7 6 -13 21 -13 33 0 41 -19 46 -166 43 l-138 -3 -7 -32 c-5 -27 -3 -33 15
-36 11 -2 -6 -5 -39 -5 -37 0 -53 2 -41 7 14 5 16 10 8 15 -14 9 -16 96 -2 96
5 0 7 7 4 15 -4 9 0 15 9 15 8 0 28 3 44 6 23 5 36 0 58 -20 26 -24 34 -26
131 -26 135 0 135 0 116 56 -8 25 -28 59 -45 75 -72 72 -217 112 -337 92z
m2943 -32 c3 -12 -1 -22 -12 -27 -13 -5 -11 -8 9 -14 20 -6 15 -8 -22 -9 -27
-1 -48 -4 -48 -8 1 -16 54 -46 82 -46 15 0 28 -2 28 -5 0 -11 -48 -41 -66 -42
-12 0 -35 -7 -50 -15 -33 -17 -164 -21 -164 -5 0 6 22 10 50 10 45 0 50 3 56
25 4 16 13 25 26 25 10 0 16 5 13 10 -3 6 -18 10 -33 10 -15 1 -40 7 -57 15
-29 13 -30 13 -5 14 14 1 35 4 47 7 21 6 21 7 6 30 -18 29 -13 32 67 37 30 2
58 4 61 5 4 1 9 -7 12 -17z m-1596 -47 c-3 -3 -12 -4 -19 -1 -8 3 -5 6 6 6 11
1 17 -2 13 -5z m-21 -64 c8 0 12 -4 9 -10 -9 -14 -63 -12 -67 2 -3 7 5 18 16
23 16 8 22 8 24 -2 2 -7 10 -13 18 -13z m1007 -63 c20 1 37 -3 37 -8 0 -12
-137 -12 -145 0 -7 12 24 21 50 13 11 -3 37 -5 58 -5z m240 -45 c-14 -2 -20
-8 -16 -18 3 -9 -2 -14 -17 -14 -19 0 -20 -2 -10 -15 7 -8 9 -15 4 -16 -5 0 1
-4 14 -9 22 -9 31 -40 11 -40 -5 0 -7 -5 -3 -11 3 -6 22 -9 40 -7 23 3 34 0
34 -9 0 -8 -12 -13 -31 -13 -20 0 -28 -4 -23 -11 5 -8 -6 -9 -37 -5 -24 4 -75
11 -114 17 -38 6 -106 12 -149 15 -49 4 -84 11 -93 20 -8 8 -23 14 -33 14 -11
0 -34 9 -52 20 l-33 20 32 0 c43 0 63 9 56 26 -3 9 1 14 12 14 10 0 15 5 12
13 -3 9 42 12 207 12 116 1 201 -1 189 -3z m-2403 -104 c0 -4 -18 -11 -41 -14
-40 -7 -42 -26 -2 -29 38 -2 21 -20 -22 -23 -47 -3 -54 -9 -33 -30 17 -17 -18
-15 -57 3 -29 13 -29 13 -6 14 13 1 21 4 18 8 -4 3 3 11 15 17 39 20 33 36
-14 38 -40 1 -41 1 -8 5 19 3 38 7 42 11 10 9 108 9 108 0z m360 -8 c-8 -5
-31 -10 -50 -11 -29 0 -31 -2 -15 -9 l20 -9 -20 0 c-17 -1 -17 -3 -5 -11 12
-7 8 -10 -15 -10 -25 -1 -27 -2 -12 -11 9 -6 27 -7 38 -4 13 4 19 3 15 -3 -8
-14 -101 -24 -144 -15 l-37 8 45 5 c36 4 46 9 48 26 3 24 49 42 137 52 6 1 3
-3 -5 -8z m1724 -55 c-4 -8 -10 -15 -15 -15 -4 0 -6 -7 -3 -15 8 -19 -9 -19
-61 0 -22 8 -49 15 -60 16 -11 1 14 7 55 14 41 7 78 13 82 14 4 0 5 -6 2 -14z
m759 -7 c15 -1 27 -5 27 -9 0 -5 -31 -9 -69 -9 -53 0 -70 4 -75 16 -5 13 1 14
42 9 26 -4 59 -7 75 -7z m-388 -18 c-33 -4 -55 -8 -50 -9 6 -1 -3 -9 -20 -19
-29 -16 -29 -17 -7 -20 31 -5 23 -26 -11 -30 -28 -3 -36 -17 -14 -25 6 -3 -3
-6 -22 -6 -28 -1 -32 1 -21 14 6 8 9 19 5 24 -3 6 4 20 17 33 14 14 18 23 10
26 -7 2 -10 8 -6 13 3 5 44 8 92 7 86 -1 86 -1 27 -8z m261 -13 c4 -4 18 -7
30 -7 17 0 22 -4 18 -15 -4 -9 -19 -15 -38 -15 -27 -1 -29 -2 -13 -11 11 -6
32 -8 48 -5 16 3 29 4 29 2 0 -3 3 -11 6 -20 5 -14 -8 -16 -112 -15 -66 1
-108 4 -94 6 14 3 31 10 38 16 11 8 9 13 -10 23 l-23 13 25 10 c14 5 21 10 15
11 -16 3 38 18 57 16 10 -1 21 -5 24 -9z m-2450 -32 c14 -13 10 -15 -32 -15
-47 0 -52 13 -9 23 11 3 21 5 23 6 2 0 10 -6 18 -14z m552 -2 c-10 -2 -26 -2
-35 0 -10 3 -2 5 17 5 19 0 27 -2 18 -5z m-461 -9 c-3 -3 -12 -4 -19 -1 -8 3
-5 6 6 6 11 1 17 -2 13 -5z m2066 -61 c-7 -2 -19 -2 -25 0 -7 3 -2 5 12 5 14
0 19 -2 13 -5z"/>
<path d="M391 488 c1 -17 3 -18 6 -6 4 16 26 18 226 21 l222 2 -227 3 -228 2
1 -22z"/>
<path d="M3468 503 c61 -2 163 -2 225 0 61 1 11 3 -113 3 -124 0 -174 -2 -112
-3z"/>
</g>
</svg>
